<svg width="127" height="20" viewBox="0 0 127 20" fill="none" xmlns="http://www.w3.org/2000/svg">
<path d="M108.149 19.5956C109.358 19.5554 110.504 19.0495 111.349 18.1836C111.367 18.1736 111.916 17.6146 112.627 16.9106C113.043 16.4901 113.59 16.223 114.177 16.1526C114.32 16.1367 114.463 16.1287 114.607 16.1286C114.823 16.1286 115.036 16.1526 115.248 16.1726C115.895 16.2533 116.526 16.4327 117.118 16.7046L122.594 18.9816C123.364 19.3315 124.19 19.5392 125.034 19.5946H125.834C125.954 19.5894 126.068 19.5368 126.149 19.4484C126.231 19.36 126.274 19.2429 126.27 19.1226V17.1106C126.273 16.4075 126.066 15.7195 125.677 15.1341C125.288 14.5486 124.733 14.0921 124.084 13.8226L122.897 13.3296C121.924 12.9479 121.028 12.3952 120.25 11.6976C119.945 11.3261 119.793 10.852 119.826 10.3724C119.859 9.89274 120.074 9.44382 120.427 9.11756L125.294 4.23656C125.911 3.59173 126.26 2.73613 126.269 1.84356C126.267 1.5983 126.233 1.35436 126.169 1.11756C126.091 0.883116 125.962 0.668945 125.791 0.490559C125.447 0.165701 124.987 -0.00910663 124.514 0.00455864H123.743C122.537 0.0359364 121.39 0.53343 120.543 1.39256C120.508 1.42256 117.331 4.61056 116.495 5.44856L112.039 9.93456V2.88356C112.039 2.50541 111.964 2.13097 111.82 1.78165C111.675 1.43234 111.463 1.115 111.195 0.847797C110.927 0.58059 110.61 0.368755 110.26 0.224408C109.911 0.0800607 109.536 0.00603286 109.158 0.00655861H107.919C107.573 -0.0173818 107.226 0.0243532 106.896 0.129559C106.71 0.229559 106.711 0.429559 106.711 0.615559V19.1676C106.711 19.281 106.756 19.3897 106.837 19.4699C106.917 19.5501 107.026 19.5953 107.139 19.5956H108.149Z" fill="#005CA9"/>
<path d="M85.025 17.2006C83.9024 16.748 82.8662 16.1052 81.962 15.3006C80.9 14.4676 80.128 13.8546 79.791 13.5916C80.8208 13.0951 81.748 12.4091 82.524 11.5696C83.2498 10.7228 83.6306 9.63409 83.591 8.51956C83.5919 7.33774 83.2387 6.18275 82.577 5.20356C81.8759 4.14518 80.9808 3.22906 79.939 2.50356C78.8303 1.71435 77.6076 1.09925 76.313 0.679559C75.0413 0.242598 73.7067 0.0162856 72.362 0.00955868H64.449C64.3933 0.0100815 64.3383 0.0215671 64.287 0.0433595C64.2358 0.0651519 64.1893 0.0968243 64.1503 0.136568C64.1113 0.176312 64.0806 0.223349 64.0597 0.274993C64.0389 0.326638 64.0285 0.381878 64.029 0.437559V18.9576C64.029 19.1506 64.029 19.3446 64.213 19.4436C64.567 19.5622 64.9401 19.6138 65.313 19.5956C65.7762 19.6021 66.2379 19.5401 66.683 19.4116C67.3528 19.1675 67.9351 18.73 68.356 18.1546C69.0329 17.1897 69.3635 16.0242 69.294 14.8476V6.82956C69.2936 6.64914 69.3141 6.46928 69.355 6.29356C69.3932 6.17188 69.4442 6.05457 69.507 5.94356C70.101 4.83756 72.166 4.40356 74.383 4.96456C77.338 5.71056 78.211 7.74856 77.891 8.62456C77.6523 9.13248 77.2616 9.55368 76.7731 9.82992C76.2846 10.1062 75.7223 10.2238 75.164 10.1666C74.4947 10.1607 73.8304 10.0507 73.195 9.84056C73.176 9.84056 72.756 9.72356 72.429 9.60156C72.2087 9.50406 71.9763 9.43679 71.738 9.40156C71.513 9.40156 71.398 9.57956 71.398 9.93956V12.0336C71.3906 12.3587 71.4513 12.6819 71.5761 12.9822C71.701 13.2825 71.8873 13.5535 72.123 13.7776C72.137 13.7986 78.582 18.8776 78.582 18.8776C79.1641 19.331 79.8782 19.582 80.616 19.5926L84.878 19.5986C85.178 19.5986 85.325 19.3986 85.325 19.0406V17.6826C85.3228 17.582 85.2931 17.4839 85.2392 17.3989C85.1852 17.314 85.1091 17.2454 85.019 17.2006" fill="#005CA9"/>
<path d="M59.248 14.5106H53.569C52.7881 14.4942 52.0188 14.3176 51.309 13.9916C50.6321 13.6284 50.0163 13.1614 49.484 12.6076C48.4284 11.4181 47.8422 9.88487 47.835 8.29456C47.8079 7.85949 47.8715 7.42353 48.0218 7.01435C48.1721 6.60516 48.4057 6.23166 48.708 5.91756C48.8957 5.74774 49.1001 5.59731 49.318 5.46856C49.5726 5.32724 49.8475 5.22605 50.133 5.16856C50.497 5.08702 50.869 5.0461 51.242 5.04656C51.6138 5.0456 51.9844 5.08653 52.347 5.16856C53.0176 5.30748 53.6566 5.56922 54.232 5.94056C55.1663 6.54567 55.9953 7.29964 56.686 8.17256H50.777C50.421 8.17256 50.244 8.33156 50.244 8.63856C50.228 9.15875 50.3432 9.67461 50.579 10.1386C50.933 10.8134 51.4649 11.3785 52.1171 11.7726C52.7693 12.1668 53.517 12.3749 54.279 12.3746H59.779C60.1499 12.4181 60.5258 12.3706 60.8743 12.2363C61.2228 12.102 61.5333 11.8848 61.779 11.6036C62.1218 11.1287 62.2877 10.5489 62.248 9.96456C62.2273 8.77124 61.9211 7.60024 61.355 6.54956C60.7447 5.33746 59.9285 4.24051 58.943 3.30756C57.9124 2.31921 56.7202 1.51458 55.418 0.928559C54.0964 0.315843 52.6567 -0.000217877 51.2 0.00255865H43.111C42.9982 0.00361307 42.8903 0.0491709 42.8109 0.129322C42.7315 0.209474 42.687 0.317736 42.687 0.430559V8.48256C42.6791 9.9539 42.9763 11.4109 43.56 12.7616C44.6902 15.4122 46.7904 17.531 49.431 18.6846C50.7773 19.2868 52.2362 19.5959 53.711 19.5916H61.826C61.9386 19.5908 62.0464 19.5454 62.1256 19.4654C62.2049 19.3854 62.2493 19.2772 62.249 19.1646V17.5436C62.2712 17.137 62.2118 16.7301 62.0744 16.3468C61.9371 15.9634 61.7244 15.6115 61.449 15.3116C61.1547 15.0357 60.8074 14.8225 60.4282 14.685C60.049 14.5474 59.6457 14.4884 59.243 14.5116" fill="#005CA9"/>
<path d="M40.903 2.89056C40.9031 2.512 40.8287 2.13713 40.6839 1.78736C40.5391 1.43758 40.3269 1.11975 40.0592 0.852031C39.7916 0.584306 39.4739 0.37193 39.1241 0.227034C38.7744 0.082137 38.3996 0.00755864 38.021 0.00755866H34.971C34.825 0.00901393 34.6848 0.0650148 34.578 0.164559L28.465 5.90556C26.2873 7.91974 23.4191 9.02054 20.453 8.98056C18.923 9.00024 17.4043 8.71683 15.9844 8.14667C14.5645 7.57651 13.2715 6.73088 12.18 5.65856C12.18 5.65856 7.687 1.43556 7.647 1.39656C6.71701 0.529353 5.50029 0.0349045 4.229 0.00755866H0.578C0.502143 0.0074272 0.427005 0.0222549 0.356885 0.051193C0.286765 0.0801311 0.223039 0.122612 0.169353 0.176204C0.115668 0.229797 0.0730763 0.293449 0.0440168 0.363519C0.0149574 0.433589 -1.13923e-07 0.508702 0 0.584559V16.7176C0.00105991 17.4815 0.305272 18.2138 0.845824 18.7536C1.38638 19.2934 2.11907 19.5966 2.883 19.5966H4.753C4.82925 19.596 4.90465 19.5805 4.97489 19.5508C5.04512 19.5211 5.10881 19.4778 5.16231 19.4235C5.21581 19.3692 5.25807 19.3048 5.28667 19.2341C5.31528 19.1634 5.32966 19.0878 5.329 19.0116V13.2796C5.3284 12.5594 5.61135 11.868 6.11663 11.3548C6.62192 10.8417 7.30891 10.5481 8.029 10.5376C10.779 10.5376 12.747 12.8936 14.529 14.4646C16.708 16.3886 18.391 18.2466 20.456 18.2466C22.521 18.2466 24.199 16.3876 26.379 14.4646C28.161 12.8936 30.127 10.5376 32.879 10.5376C33.5942 10.5482 34.2769 10.838 34.7813 11.3451C35.2858 11.8522 35.572 12.5363 35.579 13.2516V16.7176C35.5795 17.4798 35.8824 18.2107 36.4212 18.7499C36.96 19.2891 37.6908 19.5925 38.453 19.5936H39.695C40.021 19.5936 40.322 19.5936 40.322 19.5936C40.3985 19.5933 40.4741 19.5779 40.5447 19.5484C40.6152 19.5188 40.6792 19.4756 40.733 19.4213C40.7867 19.3669 40.8293 19.3025 40.8581 19.2317C40.887 19.1608 40.9015 19.085 40.901 19.0086V2.89056" fill="#005CA9"/>
<path d="M104.516 11.3956H101.552C101.089 11.3525 100.625 11.4698 100.237 11.7279C99.8502 11.9861 99.5634 12.3693 99.425 12.8136C99.2465 13.3948 98.8961 13.9084 98.42 14.2866C97.9009 14.6717 97.266 14.8685 96.62 14.8446C95.8833 14.8298 95.1632 14.623 94.531 14.2446C93.8117 13.8454 93.1636 13.3297 92.613 12.7186C92.042 12.0949 91.5738 11.3843 91.226 10.6136C90.8818 9.88967 90.698 9.10002 90.687 8.29856C90.6696 7.86864 90.7377 7.43954 90.8874 7.03614C91.0371 6.63274 91.2654 6.26307 91.559 5.94856C91.8452 5.65485 92.1889 5.42333 92.5687 5.26847C92.9484 5.11361 93.356 5.03875 93.766 5.04856C94.8607 5.07955 95.9148 5.46958 96.766 6.15856C97.1341 6.45208 97.5902 6.61338 98.061 6.61656C98.6232 6.56225 99.1411 6.288 99.502 5.85356L101.514 3.86756C101.642 3.73956 101.685 3.62156 101.646 3.52256C101.592 3.39159 101.51 3.27389 101.406 3.17756C100.353 2.20902 99.1464 1.42139 97.836 0.846559C96.5525 0.287288 95.167 0.000245293 93.767 0.00355862H85.833C85.533 0.00355862 85.373 0.182559 85.373 0.540559V8.44956C85.3658 9.9534 85.6848 11.4409 86.308 12.8096C86.909 14.1638 87.7568 15.3944 88.808 16.4386C89.8524 17.4818 91.0746 18.3304 92.417 18.9446C93.7322 19.5583 95.1657 19.8767 96.617 19.8776C97.72 19.889 98.815 19.6895 99.843 19.2896C100.801 18.9133 101.678 18.355 102.424 17.6456C103.169 16.9298 103.763 16.0719 104.17 15.1226C104.608 14.1124 104.867 13.0336 104.934 11.9346C104.955 11.5786 104.816 11.3926 104.514 11.3926" fill="#005CA9"/>
</svg>
